<svg width="20" height="20" viewBox="0 0 20 20" fill="none" xmlns="http://www.w3.org/2000/svg">
<path d="M5.83331 16.6667C5.83331 15.2859 7.69879 14.1667 9.99998 14.1667C12.3012 14.1667 14.1666 15.2859 14.1666 16.6667" stroke="#9E9E9E" stroke-width="1.6" stroke-linecap="round" stroke-linejoin="round"/>
<path d="M15 11.8746C16.4716 12.2604 17.5 13.1414 17.5 14.1666" stroke="#9E9E9E" stroke-width="1.6" stroke-linecap="round" stroke-linejoin="round"/>
<path d="M5 11.8746C3.52841 12.2604 2.5 13.1414 2.5 14.1666" stroke="#9E9E9E" stroke-width="1.6" stroke-linecap="round" stroke-linejoin="round"/>
<path d="M10 11.6667C11.3807 11.6667 12.5 10.5474 12.5 9.16666C12.5 7.78594 11.3807 6.66666 10 6.66666C8.61929 6.66666 7.5 7.78594 7.5 9.16666C7.5 10.5474 8.61929 11.6667 10 11.6667Z" stroke="#9E9E9E" stroke-width="1.6" stroke-linecap="round" stroke-linejoin="round"/>
<path d="M15 8.53008C15.5115 8.07231 15.8334 7.40707 15.8334 6.66666C15.8334 5.28594 14.7141 4.16666 13.3334 4.16666C12.6931 4.16666 12.109 4.40737 11.6667 4.80323" stroke="#9E9E9E" stroke-width="1.6" stroke-linecap="round" stroke-linejoin="round"/>
<path d="M5.00002 8.53008C4.48856 8.07231 4.16669 7.40707 4.16669 6.66666C4.16669 5.28594 5.28597 4.16666 6.66669 4.16666C7.30698 4.16666 7.89106 4.40737 8.33335 4.80323" stroke="#9E9E9E" stroke-width="1.6" stroke-linecap="round" stroke-linejoin="round"/>
</svg>
