<svg width="15" height="15" viewBox="0 0 15 15" fill="none" xmlns="http://www.w3.org/2000/svg">
<path d="M12.4498 5.75725L13.0733 5.13375C13.3465 4.8605 13.5 4.49 13.5 4.1035C13.5 3.717 13.3465 3.3465 13.0733 3.07325L11.1768 1.17675C10.9035 0.9035 10.533 0.75 10.1465 0.75C9.76005 0.75 9.38955 0.9035 9.1163 1.17675L8.4928 1.80025L12.4498 5.75725Z" fill="#FFB61D"/>
<path d="M1.25 13.25H13.25V14.25H1.25V13.25Z" fill="#FFB61D"/>
<path d="M1.75 8.543V12.25C1.75 12.388 1.862 12.5 2 12.5H5.707L1.75 8.543Z" fill="#FFB61D"/>
<path d="M11.9197 6.28745L6.23742 11.9697L2.28049 8.01277L7.96275 2.33051L11.9197 6.28745Z" fill="#FFB61D"/>
</svg>
